<mxfile host="app.diagrams.net" modified="2024-06-01T13:22:54.872Z" agent="Mozilla/5.0 (Windows NT 10.0; Win64; x64) AppleWebKit/537.36 (KHTML, like Gecko) Chrome/125.0.0.0 Safari/537.36" etag="nDuz8aMzPDSsW4uyPm2Q" version="24.4.13" type="github">
  <diagram name="Page-1" id="e7e014a7-5840-1c2e-5031-d8a46d1fe8dd">
    <mxGraphModel dx="327" dy="207" grid="1" gridSize="10" guides="1" tooltips="1" connect="1" arrows="1" fold="1" page="1" pageScale="1" pageWidth="1169" pageHeight="826" background="none" math="0" shadow="0">
      <root>
        <mxCell id="0" />
        <mxCell id="1" parent="0" />
        <mxCell id="20" value="" style="endArrow=open;strokeColor=#FF0000;endFill=1;rounded=0" parent="1" source="10" target="18" edge="1">
          <mxGeometry relative="1" as="geometry" />
        </mxCell>
        <mxCell id="5" value="" style="ellipse;shape=startState;fillColor=#000000;strokeColor=#ff0000;" parent="1" vertex="1">
          <mxGeometry x="240" y="740" width="30" height="30" as="geometry" />
        </mxCell>
        <mxCell id="6" value="" style="edgeStyle=elbowEdgeStyle;elbow=horizontal;verticalAlign=bottom;endArrow=open;endSize=8;strokeColor=#FF0000;endFill=1;rounded=0" parent="1" source="5" target="7" edge="1">
          <mxGeometry x="264.5" y="168" as="geometry">
            <mxPoint x="255" y="810" as="targetPoint" />
          </mxGeometry>
        </mxCell>
        <mxCell id="7" value="Laboratory Doctor" style="" parent="1" vertex="1">
          <mxGeometry x="200" y="832" width="110" height="50" as="geometry" />
        </mxCell>
        <mxCell id="8" value="Next Doctor" style="" parent="1" vertex="1">
          <mxGeometry x="374.5" y="860" width="110" height="50" as="geometry" />
        </mxCell>
        <mxCell id="9" value="" style="endArrow=open;strokeColor=#FF0000;endFill=1;rounded=0" parent="1" source="7" target="8" edge="1">
          <mxGeometry relative="1" as="geometry" />
        </mxCell>
        <mxCell id="10" value="post command" style="" parent="1" vertex="1">
          <mxGeometry x="200" y="1025" width="110" height="50" as="geometry" />
        </mxCell>
        <mxCell id="11" value="" style="endArrow=open;strokeColor=#FF0000;endFill=1;rounded=0" parent="1" source="8" target="10" edge="1">
          <mxGeometry relative="1" as="geometry" />
        </mxCell>
        <mxCell id="12" value="" style="edgeStyle=elbowEdgeStyle;elbow=horizontal;strokeColor=#FF0000;endArrow=open;endFill=1;rounded=0" parent="1" source="10" target="7" edge="1">
          <mxGeometry width="100" height="100" relative="1" as="geometry">
            <mxPoint x="300" y="990" as="sourcePoint" />
            <mxPoint x="400" y="890" as="targetPoint" />
            <Array as="points">
              <mxPoint x="170" y="950" />
            </Array>
          </mxGeometry>
        </mxCell>
        <mxCell id="13" value="" style="ellipse;shape=startState;fillColor=#000000;strokeColor=#ff0000;" parent="1" vertex="1">
          <mxGeometry x="484.5" y="730" width="30" height="30" as="geometry" />
        </mxCell>
        <mxCell id="14" value="" style="edgeStyle=elbowEdgeStyle;elbow=horizontal;verticalAlign=bottom;endArrow=open;endSize=8;strokeColor=#FF0000;endFill=1;rounded=0" parent="1" source="13" target="15" edge="1">
          <mxGeometry x="484.5" y="148" as="geometry">
            <mxPoint x="479.5" y="860" as="targetPoint" />
          </mxGeometry>
        </mxCell>
        <mxCell id="15" value="idle" style="" parent="1" vertex="1">
          <mxGeometry x="590" y="770" width="110" height="50" as="geometry" />
        </mxCell>
        <mxCell id="16" value="check for &#xa;new commands" style="" parent="1" vertex="1">
          <mxGeometry x="440" y="945" width="110" height="50" as="geometry" />
        </mxCell>
        <mxCell id="17" value="" style="endArrow=open;strokeColor=#FF0000;endFill=1;rounded=0" parent="1" source="15" target="16" edge="1">
          <mxGeometry relative="1" as="geometry" />
        </mxCell>
        <mxCell id="18" value="command queue" style="" parent="1" vertex="1">
          <mxGeometry x="444.5" y="1095" width="110" height="50" as="geometry" />
        </mxCell>
        <mxCell id="19" value="" style="endArrow=open;strokeColor=#FF0000;endFill=1;rounded=0" parent="1" source="16" target="18" edge="1">
          <mxGeometry relative="1" as="geometry" />
        </mxCell>
        <mxCell id="21" value="queue empty" style="rhombus;fillColor=#ffffc0;strokeColor=#ff0000;" parent="1" vertex="1">
          <mxGeometry x="610" y="970" width="80" height="40" as="geometry" />
        </mxCell>
        <mxCell id="22" value="yes" style="edgeStyle=elbowEdgeStyle;elbow=horizontal;align=left;verticalAlign=bottom;endArrow=open;endSize=8;strokeColor=#FF0000;exitX=0.5;exitY=0;endFill=1;rounded=0;entryX=0.75;entryY=0.5;entryPerimeter=0" parent="1" source="21" target="25" edge="1">
          <mxGeometry x="-1" relative="1" as="geometry">
            <mxPoint x="584.5" y="920" as="targetPoint" />
            <Array as="points">
              <mxPoint x="614.5" y="950" />
            </Array>
          </mxGeometry>
        </mxCell>
        <mxCell id="23" value="no" style="edgeStyle=elbowEdgeStyle;elbow=horizontal;align=left;verticalAlign=top;endArrow=open;endSize=8;strokeColor=#FF0000;endFill=1;rounded=0" parent="1" source="21" target="30" edge="1">
          <mxGeometry x="-1" relative="1" as="geometry">
            <mxPoint x="614.5" y="1075" as="targetPoint" />
          </mxGeometry>
        </mxCell>
        <mxCell id="24" value="" style="endArrow=open;strokeColor=#FF0000;endFill=1;rounded=0" parent="1" source="16" target="21" edge="1">
          <mxGeometry relative="1" as="geometry" />
        </mxCell>
        <mxCell id="25" value="" style="shape=line;strokeWidth=6;strokeColor=#ff0000;rotation=90" parent="1" vertex="1">
          <mxGeometry x="810" y="832" width="50" height="15" as="geometry" />
        </mxCell>
        <mxCell id="26" value="" style="edgeStyle=elbowEdgeStyle;elbow=horizontal;verticalAlign=bottom;endArrow=open;endSize=8;strokeColor=#FF0000;endFill=1;rounded=0" parent="1" source="25" target="15" edge="1">
          <mxGeometry x="574.5" y="218" as="geometry">
            <mxPoint x="654.5" y="910" as="targetPoint" />
          </mxGeometry>
        </mxCell>
        <mxCell id="30" value="dispatch&#xa;command&#xa;worker thread" style="" parent="1" vertex="1">
          <mxGeometry x="564.5" y="1095" width="110" height="50" as="geometry" />
        </mxCell>
        <mxCell id="31" value="critical&#xa;section" style="shape=note;whiteSpace=wrap;size=17" parent="1" vertex="1">
          <mxGeometry x="454.5" y="1220" width="100" height="50" as="geometry" />
        </mxCell>
        <mxCell id="32" value="" style="endArrow=none;strokeColor=#FF0000;endFill=0;rounded=0;dashed=1" parent="1" source="18" target="31" edge="1">
          <mxGeometry relative="1" as="geometry" />
        </mxCell>
        <mxCell id="34" value="" style="whiteSpace=wrap;strokeColor=#FF0000;fillColor=#FF0000" parent="1" vertex="1">
          <mxGeometry x="722.5" y="1170" width="5" height="45" as="geometry" />
        </mxCell>
        <mxCell id="41" value="" style="edgeStyle=elbowEdgeStyle;elbow=horizontal;entryX=0;entryY=0.5;strokeColor=#FF0000;endArrow=open;endFill=1;rounded=0" parent="1" source="30" target="34" edge="1">
          <mxGeometry width="100" height="100" relative="1" as="geometry">
            <mxPoint x="484.5" y="1250" as="sourcePoint" />
            <mxPoint x="584.5" y="1150" as="targetPoint" />
            <Array as="points">
              <mxPoint x="619.5" y="1170" />
            </Array>
          </mxGeometry>
        </mxCell>
        <mxCell id="33" value="process&#xa;command" style="" parent="1" vertex="1">
          <mxGeometry x="770" y="1040" width="110" height="55" as="geometry" />
        </mxCell>
        <mxCell id="38" value="" style="ellipse;shape=endState;fillColor=#000000;strokeColor=#ff0000" parent="1" vertex="1">
          <mxGeometry x="810" y="1140" width="30" height="30" as="geometry" />
        </mxCell>
        <mxCell id="39" value="" style="endArrow=open;strokeColor=#FF0000;endFill=1;rounded=0" parent="1" source="33" target="38" edge="1">
          <mxGeometry relative="1" as="geometry" />
        </mxCell>
        <mxCell id="5MCNYVNNWH6MKMbBlyxb-43" value="Doctor(i)" style="rounded=0;whiteSpace=wrap;html=1;" vertex="1" parent="1">
          <mxGeometry x="80" y="80" width="120" height="40" as="geometry" />
        </mxCell>
        <mxCell id="5MCNYVNNWH6MKMbBlyxb-44" value="Price: 90azn" style="ellipse;whiteSpace=wrap;html=1;" vertex="1" parent="1">
          <mxGeometry x="505" y="160" width="80" height="40" as="geometry" />
        </mxCell>
        <mxCell id="5MCNYVNNWH6MKMbBlyxb-48" value="Comment:" style="ellipse;whiteSpace=wrap;html=1;" vertex="1" parent="1">
          <mxGeometry x="564.5" y="80" width="80" height="40" as="geometry" />
        </mxCell>
        <mxCell id="5MCNYVNNWH6MKMbBlyxb-50" value="" style="endArrow=classic;html=1;rounded=0;" edge="1" parent="1">
          <mxGeometry width="50" height="50" relative="1" as="geometry">
            <mxPoint x="410" y="189.8" as="sourcePoint" />
            <mxPoint x="460" y="190" as="targetPoint" />
          </mxGeometry>
        </mxCell>
        <mxCell id="5MCNYVNNWH6MKMbBlyxb-57" value="Condition" style="rhombus;whiteSpace=wrap;html=1;fontColor=#000000;fillColor=#ffffc0;strokeColor=#ff0000;" vertex="1" parent="1">
          <mxGeometry x="330" y="720" width="80" height="40" as="geometry" />
        </mxCell>
        <mxCell id="5MCNYVNNWH6MKMbBlyxb-58" value="no" style="edgeStyle=orthogonalEdgeStyle;html=1;align=left;verticalAlign=bottom;endArrow=open;endSize=8;strokeColor=#ff0000;rounded=0;" edge="1" source="5MCNYVNNWH6MKMbBlyxb-57" parent="1">
          <mxGeometry x="-1" relative="1" as="geometry">
            <mxPoint x="510" y="740" as="targetPoint" />
          </mxGeometry>
        </mxCell>
        <mxCell id="5MCNYVNNWH6MKMbBlyxb-59" value="yes" style="edgeStyle=orthogonalEdgeStyle;html=1;align=left;verticalAlign=top;endArrow=open;endSize=8;strokeColor=#ff0000;rounded=0;" edge="1" source="5MCNYVNNWH6MKMbBlyxb-57" parent="1">
          <mxGeometry x="-1" relative="1" as="geometry">
            <mxPoint x="370" y="820" as="targetPoint" />
          </mxGeometry>
        </mxCell>
        <mxCell id="5MCNYVNNWH6MKMbBlyxb-60" value="Next Doctor" style="rhombus;whiteSpace=wrap;html=1;fontColor=#000000;fillColor=#ffffc0;strokeColor=#ff0000;" vertex="1" parent="1">
          <mxGeometry x="100" y="200" width="80" height="40" as="geometry" />
        </mxCell>
        <mxCell id="5MCNYVNNWH6MKMbBlyxb-61" value="no" style="edgeStyle=orthogonalEdgeStyle;html=1;align=left;verticalAlign=bottom;endArrow=open;endSize=8;strokeColor=#ff0000;rounded=0;exitX=1;exitY=0.5;exitDx=0;exitDy=0;" edge="1" source="5MCNYVNNWH6MKMbBlyxb-60" parent="1">
          <mxGeometry x="-0.1155" relative="1" as="geometry">
            <mxPoint x="250" y="220" as="targetPoint" />
            <mxPoint x="410" y="320" as="sourcePoint" />
            <mxPoint as="offset" />
          </mxGeometry>
        </mxCell>
        <mxCell id="5MCNYVNNWH6MKMbBlyxb-66" value="Laboratory Doctor" style="rounded=0;whiteSpace=wrap;html=1;" vertex="1" parent="1">
          <mxGeometry x="394.5" y="260" width="120" height="40" as="geometry" />
        </mxCell>
        <mxCell id="5MCNYVNNWH6MKMbBlyxb-67" value="" style="edgeStyle=orthogonalEdgeStyle;html=1;align=left;verticalAlign=top;endArrow=open;endSize=8;strokeColor=#ff0000;rounded=0;exitX=0.5;exitY=1;exitDx=0;exitDy=0;entryX=0.5;entryY=0;entryDx=0;entryDy=0;" edge="1" parent="1">
          <mxGeometry x="-0.3882" relative="1" as="geometry">
            <mxPoint x="139.76" y="200" as="targetPoint" />
            <mxPoint x="139.76" y="120" as="sourcePoint" />
            <mxPoint as="offset" />
          </mxGeometry>
        </mxCell>
        <mxCell id="5MCNYVNNWH6MKMbBlyxb-68" value="yes" style="edgeStyle=orthogonalEdgeStyle;html=1;align=left;verticalAlign=top;endArrow=open;endSize=8;strokeColor=#ff0000;rounded=0;exitX=0.5;exitY=1;exitDx=0;exitDy=0;entryX=0.5;entryY=0;entryDx=0;entryDy=0;" edge="1" parent="1">
          <mxGeometry x="-0.3882" relative="1" as="geometry">
            <mxPoint x="554.76" y="300" as="targetPoint" />
            <mxPoint x="554.76" y="220" as="sourcePoint" />
            <mxPoint as="offset" />
          </mxGeometry>
        </mxCell>
        <mxCell id="5MCNYVNNWH6MKMbBlyxb-69" value="yes" style="edgeStyle=orthogonalEdgeStyle;html=1;align=left;verticalAlign=top;endArrow=open;endSize=8;strokeColor=#ff0000;rounded=0;entryX=0;entryY=0.5;entryDx=0;entryDy=0;exitX=0;exitY=0.5;exitDx=0;exitDy=0;" edge="1" parent="1" source="5MCNYVNNWH6MKMbBlyxb-60" target="5MCNYVNNWH6MKMbBlyxb-43">
          <mxGeometry x="0.0289" relative="1" as="geometry">
            <mxPoint x="76.3" y="100" as="targetPoint" />
            <mxPoint x="80" y="220" as="sourcePoint" />
            <mxPoint as="offset" />
            <Array as="points">
              <mxPoint x="66" y="220" />
              <mxPoint x="66" y="100" />
            </Array>
          </mxGeometry>
        </mxCell>
        <mxCell id="5MCNYVNNWH6MKMbBlyxb-141" value="Price" style="rounded=1;whiteSpace=wrap;html=1;" vertex="1" parent="1">
          <mxGeometry x="240" y="80" width="70" height="20" as="geometry" />
        </mxCell>
        <mxCell id="5MCNYVNNWH6MKMbBlyxb-142" value="Price" style="rounded=1;whiteSpace=wrap;html=1;" vertex="1" parent="1">
          <mxGeometry x="240" y="110" width="70" height="20" as="geometry" />
        </mxCell>
      </root>
    </mxGraphModel>
  </diagram>
</mxfile>
